<svg xmlns="http://www.w3.org/2000/svg" xmlns:xlink="http://www.w3.org/1999/xlink" viewBox="0 0 600 186.67"><defs><style>.cls-1{fill:none;}.cls-2{isolation:isolate;}.cls-3{fill:url(#linear-gradient);}.cls-4{opacity:0.1;}.cls-5{clip-path:url(#clip-path);}.cls-6{fill:url(#linear-gradient-2);}.cls-13,.cls-7,.cls-9{mix-blend-mode:soft-light;}.cls-8{fill:url(#linear-gradient-3);}.cls-9{fill:url(#linear-gradient-4);}.cls-10{clip-path:url(#clip-path-2);}.cls-11{fill:url(#linear-gradient-5);}.cls-12{fill:url(#linear-gradient-6);}.cls-13{fill:url(#linear-gradient-7);}</style><linearGradient id="linear-gradient" y1="93.37" x2="600" y2="93.37" gradientUnits="userSpaceOnUse"><stop offset="0" stop-color="#0053ac"/><stop offset="1" stop-color="#00438a"/></linearGradient><clipPath id="clip-path"><path class="cls-1" d="M600,0V186.69c-47.16-26.87-163.6-45.87-299.77-45.87S47.45,159.85.36,186.74H0V0Z"/></clipPath><linearGradient id="linear-gradient-2" x1="349.74" y1="29.65" x2="529.51" y2="341.02" gradientUnits="userSpaceOnUse"><stop offset="0" stop-color="#0053ac"/><stop offset="1" stop-color="#00438a" stop-opacity="0.02"/></linearGradient><linearGradient id="linear-gradient-3" x1="414.12" y1="52.43" x2="525.94" y2="246.11" xlink:href="#linear-gradient-2"/><linearGradient id="linear-gradient-4" x1="487.31" y1="135.01" x2="517.45" y2="187.21" xlink:href="#linear-gradient-2"/><clipPath id="clip-path-2"><path class="cls-1" d="M0,0V186.69c47.16-26.87,163.6-45.87,299.77-45.87s252.78,19,299.87,45.92H600V0Z"/></clipPath><linearGradient id="linear-gradient-5" x1="137.81" y1="29.65" x2="317.58" y2="341.02" gradientTransform="matrix(-1, 0, 0, 1, 388.08, 0)" xlink:href="#linear-gradient"/><linearGradient id="linear-gradient-6" x1="202.2" y1="52.43" x2="314.02" y2="246.11" gradientTransform="matrix(-1, 0, 0, 1, 388.08, 0)" gradientUnits="userSpaceOnUse"><stop offset="0" stop-color="#0053ac"/><stop offset="1" stop-color="#00438a" stop-opacity="0"/></linearGradient><linearGradient id="linear-gradient-7" x1="275.38" y1="135.01" x2="305.52" y2="187.21" gradientTransform="matrix(-1, 0, 0, 1, 388.08, 0)" gradientUnits="userSpaceOnUse"><stop offset="0" stop-color="#0053ac"/><stop offset="1" stop-color="#00438a" stop-opacity="0.05"/></linearGradient></defs><title>pattern_2-16</title><g class="cls-2"><g id="Layer_1" data-name="Layer 1"><path class="cls-3" d="M600,0V186.69c-47.16-26.87-163.6-45.87-299.77-45.87S47.45,159.85.36,186.74H0V0Z"/><g class="cls-5"><path class="cls-6" d="M401.1,0C303.26,64.06,238.62,174.64,238.62,300.32H600V0Z"/><g class="cls-7"><path class="cls-8" d="M470,37.46A111.81,111.81,0,1,0,581.84,149.27,111.81,111.81,0,0,0,470,37.46ZM470,234a84.75,84.75,0,1,1,84.75-84.74A84.74,84.74,0,0,1,470,234Z"/></g><g class="cls-7"><path class="cls-9" d="M477.76,162a22.84,22.84,0,0,1,45.68,0h7.29a30.13,30.13,0,0,0-60.26,0Z"/></g></g><g class="cls-10"><path class="cls-11" d="M198.9,0c97.84,64.06,162.48,174.64,162.48,300.32H0V0Z"/><g class="cls-7"><path class="cls-12" d="M18.16,149.27A111.81,111.81,0,1,0,130,37.46,111.81,111.81,0,0,0,18.16,149.27Zm27.06,0A84.75,84.75,0,1,1,130,234,84.75,84.75,0,0,1,45.22,149.27Z"/></g><g class="cls-7"><path class="cls-13" d="M122.24,162a22.84,22.84,0,0,0-45.68,0H69.27a30.13,30.13,0,0,1,60.26,0Z"/></g></g></g></g></svg>