<svg xmlns="http://www.w3.org/2000/svg" xmlns:xlink="http://www.w3.org/1999/xlink" viewBox="0 0 599.33 186.67"><defs><style>.cls-1{fill:none;}.cls-2{isolation:isolate;}.cls-3{fill:url(#linear-gradient);}.cls-4{opacity:0.1;}.cls-5{opacity:0.17;}.cls-6{fill-rule:evenodd;fill:url(#linear-gradient-2);}.cls-7{clip-path:url(#clip-path);}.cls-8,.cls-9{mix-blend-mode:soft-light;}.cls-8{fill:url(#linear-gradient-3);}.cls-9{fill:url(#linear-gradient-4);}</style><linearGradient id="linear-gradient" y1="93.34" x2="600" y2="93.34" gradientUnits="userSpaceOnUse"><stop offset="0" stop-color="#0053ac"/><stop offset="1" stop-color="#00438a"/></linearGradient><linearGradient id="linear-gradient-2" y1="93.34" x2="600" y2="93.34" gradientUnits="userSpaceOnUse"><stop offset="0" stop-color="#5b71ff"/><stop offset="0.65" stop-color="#314ab8"/><stop offset="1" stop-color="#1d3796"/></linearGradient><clipPath id="clip-path"><rect class="cls-1" x="10.18" width="612.24" height="252"/></clipPath><linearGradient id="linear-gradient-3" x1="4700.02" y1="-1417.61" x2="5008.69" y2="-1417.61" gradientTransform="translate(4990.33 -1391.25) rotate(180)" gradientUnits="userSpaceOnUse"><stop offset="0" stop-color="#fff"/><stop offset="0.25" stop-color="#d2d8ff"/><stop offset="0.77" stop-color="#7d8eff"/><stop offset="1" stop-color="#5b71ff"/></linearGradient><linearGradient id="linear-gradient-4" x1="580.03" y1="-13.83" x2="420.69" y2="-13.83" gradientUnits="userSpaceOnUse"><stop offset="0" stop-color="#fff" stop-opacity="0.5"/><stop offset="0.06" stop-color="#f4f6ff" stop-opacity="0.53"/><stop offset="0.71" stop-color="#8797ff" stop-opacity="0.87"/><stop offset="1" stop-color="#5b71ff"/></linearGradient></defs><title>Pattern_17-17</title><g class="cls-2"><g id="Layer_1" data-name="Layer 1"><path class="cls-3" d="M600,0V186.69c-47.16-26.86-163.6-45.87-299.77-45.87-127.6,0-237.87,16.69-290,40.88C6.63,183.35,3,185,0,186.67V0Z"/><path class="cls-1" d="M6.12,0V186.69c47.16-26.87,163.6-45.87,299.77-45.87s252.78,19,299.87,45.92h.36V0Z"/><g class="cls-5"><path class="cls-6" d="M600,0V186.69c-48-26.86-166.42-45.87-304.94-45.87-129.81,0-242,19.44-295.06,43.63V0Z"/><g class="cls-7"><path class="cls-8" d="M290.3-18.67s-12.84,79.51-92,54C89.73.36,66.91,25.67,46,55.67S-9,66-18.37,52L-17-18.67Z"/><circle class="cls-9" cx="500.47" cy="-13.83" r="82.5"/></g></g></g></g></svg>